<?xml version="1.0" encoding="UTF-8" standalone="no"?>
<!-- Created with Inkscape (http://www.inkscape.org/) -->

<svg
   xmlns:dc="http://purl.org/dc/elements/1.1/"
   xmlns:cc="http://creativecommons.org/ns#"
   xmlns:rdf="http://www.w3.org/1999/02/22-rdf-syntax-ns#"
   xmlns:svg="http://www.w3.org/2000/svg"
   xmlns="http://www.w3.org/2000/svg"
   xmlns:sodipodi="http://sodipodi.sourceforge.net/DTD/sodipodi-0.dtd"
   xmlns:inkscape="http://www.inkscape.org/namespaces/inkscape"
   width="36.464966mm"
   height="22.8193mm"
   viewBox="0 0 36.464966 22.8193"
   version="1.1"
   id="svg8"
   sodipodi:docname="VGym-launcher-foreground.svg"
   inkscape:version="0.92.4 (5da689c313, 2019-01-14)">
  <defs
     id="defs2" />
  <sodipodi:namedview
     id="base"
     pagecolor="#ffffff"
     bordercolor="#666666"
     borderopacity="1.0"
     inkscape:pageopacity="0.0"
     inkscape:pageshadow="2"
     inkscape:zoom="4"
     inkscape:cx="12.709214"
     inkscape:cy="36.883627"
     inkscape:document-units="mm"
     inkscape:current-layer="layer1"
     showgrid="false"
     fit-margin-top="0"
     fit-margin-left="0"
     fit-margin-right="0"
     fit-margin-bottom="0"
     inkscape:window-width="1920"
     inkscape:window-height="1017"
     inkscape:window-x="-8"
     inkscape:window-y="-8"
     inkscape:window-maximized="1" />
  <metadata
     id="metadata5">
    <rdf:RDF>
      <cc:Work
         rdf:about="">
        <dc:format>image/svg+xml</dc:format>
        <dc:type
           rdf:resource="http://purl.org/dc/dcmitype/StillImage" />
        <dc:title></dc:title>
      </cc:Work>
    </rdf:RDF>
  </metadata>
  <g
     inkscape:label="Layer 1"
     inkscape:groupmode="layer"
     id="layer1"
     transform="translate(-90.346054,-119.09996)">
    <path
       style="font-style:italic;font-variant:normal;font-weight:900;font-stretch:normal;font-size:25.39999962px;line-height:1.25;font-family:Lato;-inkscape-font-specification:'Lato Heavy Italic';letter-spacing:0px;word-spacing:0px;fill:#24a7ff;fill-opacity:1;stroke:none;stroke-width:0.26458332"
       d="m 90.346054,119.09998 5.556766,22.61567 h 4.59455 l 9.80613,-19.95382 h 11.29285 l 5.21467,-2.66185 h -19.29754 c -0.20696,0 -0.40851,0.0309 -0.60513,0.093 -0.18627,0.0621 -0.36205,0.14508 -0.52762,0.24856 -0.15522,0.10348 -0.28976,0.22256 -0.40359,0.35709 -0.11383,0.13452 -0.20198,0.26906 -0.26407,0.40359 l -5.27771,12.46435 c -0.21731,0.52776 -0.465774,1.10716 -0.745174,1.7384 -0.2794,0.62089 -0.527347,1.25699 -0.744658,1.90893 -0.08279,-0.65194 -0.191552,-1.2932 -0.326078,-1.92443 -0.124178,-0.64159 -0.232945,-1.21584 -0.326078,-1.7229 l -2.359546,-12.46435 c -0.06209,-0.32079 -0.222404,-0.58472 -0.481108,-0.79168 -0.258703,-0.20697 -0.605107,-0.31058 -1.039729,-0.31058 z m 27.386966,3.90881 c -0.9398,0 -1.83721,0.12292 -2.69235,0.36845 -0.85513,0.23707 -1.6553,0.57963 -2.40036,1.02836 -0.7366,0.44873 -1.40992,0.99074 -2.01952,1.62574 -0.60113,0.635 -1.11746,1.34632 -1.54926,2.13372 -0.4318,0.7874 -0.76597,1.6468 -1.00304,2.57814 -0.2286,0.92286 -0.34313,1.89628 -0.34313,2.92075 0,1.17687 0.18215,2.26927 0.54622,3.2768 0.37253,1.00753 0.89331,1.87926 1.56218,2.61586 0.67733,0.7366 1.48589,1.31661 2.42569,1.73995 0.94827,0.41486 1.99376,0.6227 3.13676,0.6227 0.69427,0 1.34635,-0.0385 1.95595,-0.11472 0.61807,-0.0762 1.20202,-0.19467 1.75235,-0.35554 0.5588,-0.16086 1.09242,-0.36373 1.60042,-0.60926 0.508,-0.254 0.99916,-0.55462 1.4733,-0.90176 l 0.96479,-7.73441 h -6.17223 l -0.27905,2.38745 c 0,0.18627 0.0632,0.33435 0.19017,0.44442 0.127,0.11007 0.30915,0.16537 0.54622,0.16537 h 1.5751 l -0.35606,3.02255 c -0.37253,0.16087 -0.762,0.28772 -1.1684,0.38086 -0.4064,0.0847 -0.86349,0.12712 -1.37149,0.12712 -0.61807,0 -1.18079,-0.11847 -1.68879,-0.35553 -0.508,-0.23707 -0.94438,-0.5757 -1.30845,-1.01596 -0.36406,-0.44874 -0.64739,-0.99468 -0.85059,-1.63815 -0.19473,-0.65193 -0.29249,-1.38448 -0.29249,-2.19728 0,-1.04986 0.13131,-2.01096 0.39378,-2.88303 0.27093,-0.87206 0.64808,-1.61693 1.13068,-2.235 0.4826,-0.62653 1.05816,-1.10931 1.72702,-1.44798 0.66887,-0.34713 1.40535,-0.52089 2.20969,-0.52089 0.37253,0 0.70722,0.0257 1.00355,0.0765 0.3048,0.0508 0.58813,0.12681 0.8506,0.22841 0.27093,0.0931 0.538,0.21605 0.80046,0.36845 0.26247,0.14393 0.5458,0.31325 0.8506,0.50798 0.23707,0.1524 0.47006,0.22841 0.69866,0.22841 0.381,0 0.72357,-0.18609 1.02837,-0.55862 l 1.34617,-1.66347 c -0.3048,-0.33866 -0.65575,-0.66497 -1.05369,-0.97823 -0.39793,-0.32174 -0.85109,-0.60113 -1.35909,-0.83819 -0.508,-0.24554 -1.08356,-0.44001 -1.72702,-0.58395 -0.635,-0.14393 -1.34632,-0.216 -2.13372,-0.216 z"
       id="text817"
       inkscape:connector-curvature="0"
       sodipodi:nodetypes="cccccccccscccccccsscccccscscccscccccccsscccssccscccsccccscccccsc" />
  </g>
</svg>
